<svg xmlns="http://www.w3.org/2000/svg" viewBox="0 0 1920.79 331.65"><defs><style>.p{fill:#3e5dc9;}.q{fill:#0b9fd9;}.r{fill:#5edae6;}</style></defs><g id="a"/><g id="b"><g id="c"><g id="d"><g id="e"><path id="f" d="M445.45,109.28c53.09,0,68.72,4.72,86.76,14.17,18.04,9.45,34.05,22.71,44.02,39.79,9.97,17.09,14.96,36.29,14.96,57.62s-5.01,41.04-15.04,57.86c-10.03,16.82-26.28,29.85-44.74,39.08s-32.87,13.85-86.51,13.85h-53.57V109.28h54.12Zm27.02,182.07c17.37,0,35.31-6.46,45.82-19.38,10.51-12.92,17.76-29.86,17.76-50.8,0-25.15-7.29-38.86-17.88-51.45-10.58-12.59-28.84-18.88-46.75-18.88h-26.34v140.52h27.39Z"/><path id="g" d="M728.91,109.28l76.8,222.37h-55.4l-12.93-37.45h-82.79l-12.93,37.45h-55.47l76.88-222.37h65.85Zm-59.74,144.55h54.27l-27.16-79.75-27.11,79.75Z"/><path id="h" d="M973.83,109.28v41.49h-60.61v180.88h-53.71V150.77h-60.44v-41.49h174.76Z"/><path id="i" d="M1110.29,109.28l76.8,222.37h-55.4l-12.93-37.45h-82.79l-12.93,37.45h-55.47l76.88-222.37h65.85Zm-59.74,144.55h54.27l-27.16-79.75-27.11,79.75Z"/></g><g id="j"><polygon id="k" points="1373.45 109.26 1344.84 109.26 1246.6 211.76 1246.02 109.28 1224.28 109.28 1224.28 331.65 1246.02 331.65 1246.6 229.63 1339.2 331.65 1367.81 331.65 1263.33 220.22 1373.45 109.26"/><polygon id="l" points="1652.32 109.28 1599.17 307.36 1541.08 109.28 1541.08 109.28 1520.47 109.28 1520.47 109.28 1462.37 307.36 1409.22 109.28 1387.48 109.28 1449.17 331.65 1455.24 331.65 1468.89 331.65 1473.83 331.65 1530.77 143.36 1587.71 331.65 1592.65 331.65 1606.3 331.65 1612.37 331.65 1674.07 109.28 1652.32 109.28"/><rect id="m" x="1707.52" y="109.28" width="21.74" height="222.37"/><path id="n" d="M1901.15,127.29c-12.43-11.65-29.61-18.03-48.03-18.03h-62.86v.02h-13.28v222.37h21.74v-91.23h54.4c18.44,0,35.64-6.36,48.08-18.03,12-11.23,19.58-27.4,19.58-47.55s-7.6-36.28-19.63-47.55Zm-52.29,95.09h-50.13V127.29h50.13c27.44,0,48.95,14.7,48.95,47.55s-22.69,47.55-48.95,47.55Z"/></g></g><g id="o"><polygon class="p" points="80.47 189.26 80.47 331.65 0 331.65 0 248.47 80.47 189.26"/><polygon class="q" points="209.08 94.73 209.08 331.65 128.61 331.65 128.61 180.38 92.54 180.38 128.61 153.84 157.6 132.51 203.2 98.96 204.81 97.83 209.08 94.73"/><polygon class="r" points="209.08 94.73 257.22 94.73 257.22 331.65 337.69 331.65 337.69 0 330.11 5.58 257.22 59.21 209.08 94.73"/></g></g></g></svg>
